<svg xmlns="http://www.w3.org/2000/svg" width="19.716" height="24.348" viewBox="0 0 19.716 24.348"><defs><style>.a{fill:#dea36d;stroke:#dea36d;stroke-width:0.75px;}</style></defs><g transform="translate(4.102 0.375)"><path class="a" d="M92.011,11.779a5.89,5.89,0,1,0-5.89-5.89A5.889,5.889,0,0,0,92.011,11.779ZM92.011,1A4.891,4.891,0,1,1,87.119,5.89,4.891,4.891,0,0,1,92.011,1Zm0,0" transform="translate(-86.254)"/><path class="a" d="M5.757,331.313a9.3,9.3,0,0,0-6.708,2.8,9.976,9.976,0,0,0-2.775,7.048.5.5,0,0,0,.5.5H14.741a.5.5,0,0,0,.5-.5,9.964,9.964,0,0,0-2.775-7.043A9.3,9.3,0,0,0,5.757,331.313Zm-8.475,9.348a8.914,8.914,0,0,1,2.476-5.845,8.316,8.316,0,0,1,5.994-2.5,8.315,8.315,0,0,1,5.994,2.5,8.89,8.89,0,0,1,2.476,5.845Zm0,0" transform="translate(0 -318.061)"/></g></svg>