<svg xmlns="http://www.w3.org/2000/svg" width="32.485" height="40" viewBox="0 0 32.485 40"><defs><style>.a{fill:#69d88d;}</style></defs><g transform="translate(-48.097 0)"><path class="a" d="M78.743,11.9H68.988l6.529-5.285a1.838,1.838,0,0,0,.143-2.729L72.313.538a1.838,1.838,0,0,0-2.729.143L65.428,5.816a.586.586,0,0,0,.911.737L70.5,1.419a.667.667,0,0,1,.989-.052l3.346,3.346a.667.667,0,0,1-.052.989l-6.147,4.976a3.084,3.084,0,0,0-.757-1.528L71.329,5.7a.586.586,0,0,0-.829-.829L66.925,8.444a3.073,3.073,0,0,0-1.333-.3h-.459L59.095.682A1.838,1.838,0,0,0,56.366.538L53.019,3.885a1.838,1.838,0,0,0,.143,2.729L59.691,11.9H49.936A1.84,1.84,0,0,0,48.1,13.737V20a1.841,1.841,0,0,0,1.253,1.742V38.162A1.841,1.841,0,0,0,51.188,40h26.3a1.841,1.841,0,0,0,1.838-1.838V21.742A1.841,1.841,0,0,0,80.582,20V13.737A1.841,1.841,0,0,0,78.743,11.9Zm-11.232-.667V11.9H61.168v-.667a1.921,1.921,0,0,1,1.919-1.919h2.505A1.921,1.921,0,0,1,67.511,11.232Zm-1.253,27.6H62.42V13.071h3.838ZM53.654,5.22a.659.659,0,0,1,.194-.506l3.346-3.346a.667.667,0,0,1,.989.052l5.442,6.722h-.539a3.073,3.073,0,0,0-1.333.3L58.178,4.869a.586.586,0,0,0-.829.829L60.8,9.151a3.083,3.083,0,0,0-.757,1.527L53.9,5.7a.658.658,0,0,1-.246-.483ZM50.521,38.162V21.838h8.808a.586.586,0,0,0,0-1.172H49.935A.667.667,0,0,1,49.269,20V13.737a.667.667,0,0,1,.667-.667H61.249V38.828H51.188A.667.667,0,0,1,50.521,38.162Zm26.97.667H67.43V21.838H78.158V38.162A.667.667,0,0,1,77.491,38.828ZM79.41,20a.667.667,0,0,1-.667.667H67.43v-7.6H78.743a.667.667,0,0,1,.667.667Z" transform="translate(0 0)"/></g></svg>